<?xml version="1.0" encoding="iso-8859-1"?>
<!-- Uploaded to: SVG Repo, www.svgrepo.com, Generator: SVG Repo Mixer Tools -->
<svg fill="#000000" height="800px" width="800px" version="1.1" id="Layer_1" xmlns="http://www.w3.org/2000/svg" xmlns:xlink="http://www.w3.org/1999/xlink" 
	 viewBox="0 0 512.001 512.001" xml:space="preserve">
<g>
	<g>
		<path d="M462.794,16.262c-7.489-7.489-17.466-11.614-28.092-11.614c-10.626,0-20.603,4.124-28.092,11.614L123.713,299.157
			c-0.669,0.669-1.262,1.383-1.82,2.116L10.319,412.847C3.664,419.5,0,428.362,0,437.799c0,9.435,3.664,18.296,10.318,24.951
			l34.288,34.287c6.879,6.879,15.913,10.319,24.951,10.318c9.035,0,18.072-3.44,24.951-10.318l115.16-115.159l34.894,34.892
			c0.608,0.608,1.253,1.155,1.914,1.671c7.478,6.586,16.855,9.888,26.236,9.888c10.174,0,20.347-3.872,28.092-11.617l161.99-161.992
			c31.732-31.732,49.208-74.074,49.208-119.229C512,90.337,494.524,47.993,462.794,16.262z M69.555,463.582L43.77,437.799
			l110.22-110.22l25.785,25.785L69.555,463.582z M433.591,225.52L272.668,386.442c-0.051-0.043-0.105-0.078-0.156-0.121
			l-88.781-88.781l250.961-250.96c23.236,23.805,36.009,55.316,36.009,88.911C470.702,169.617,457.523,201.588,433.591,225.52z"/>
	</g>
</g>
</svg>